<svg width="595" height="242" xmlns="http://www.w3.org/2000/svg" xmlns:xlink="http://www.w3.org/1999/xlink" xml:space="preserve" overflow="hidden"><g><path d="M93.6482 57.5396 120.01 57.5396 120.01 59.4482 118.591 59.4482C115.793 59.4482 113.974 59.6781 113.105 60.1378 112.235 60.6074 111.666 61.4668 111.396 62.7159 111.116 63.9851 110.966 66.973 110.966 71.6996L110.966 91.136C110.966 95.9626 110.786 99.61 110.406 102.138 110.017 104.656 108.977 107.115 107.239 109.513 105.51 111.891 103.201 113.74 100.314 115.029 97.4256 116.318 94.0679 116.948 90.2406 116.948 85.9436 116.948 82.6359 116.148 80.3176 114.57 77.9992 112.981 76.84 111.082 76.84 108.904 76.84 107.584 77.2597 106.475 78.0791 105.566 78.9086 104.666 79.9278 104.227 81.147 104.227 82.3861 104.227 83.4254 104.617 84.2548 105.426 85.0942 106.235 85.5039 107.225 85.5039 108.404 85.5039 109.103 85.334 109.823 84.9943 110.582 84.6845 111.242 84.5346 111.742 84.5346 112.071 84.5346 112.961 85.0642 113.66 86.1135 114.16 87.1828 114.649 88.4818 114.909 90.0507 114.909 93.2285 114.909 95.9066 113.89 98.0851 111.871 100.254 109.843 101.563 107.455 102.012 104.696 102.452 101.948 102.682 97.4016 102.682 91.066L102.682 71.6796C102.682 67.1528 102.542 64.2449 102.282 62.9258 102.012 61.6167 101.453 60.7074 100.593 60.1977 99.7439 59.6981 97.8652 59.4482 94.9873 59.4482L93.6382 59.4482 93.6382 57.5396Z"/><path d="M143.313 87.5785 143.313 99.59C143.313 104.097 143.423 107.035 143.633 108.424 143.843 109.813 144.413 110.852 145.342 111.522 146.261 112.201 148.01 112.541 150.578 112.541L152.477 112.541 152.477 114.45 126.255 114.45 126.255 112.541 127.774 112.541C130.223 112.541 131.921 112.221 132.861 111.622 133.8 110.992 134.41 110.033 134.659 108.724 134.909 107.435 135.039 104.407 135.039 99.64L135.039 71.7096C135.039 67.1728 134.909 64.2549 134.659 62.9358 134.41 61.6167 133.84 60.7173 132.971 60.2077 132.101 59.7081 130.213 59.4582 127.325 59.4582L126.265 59.4582 126.265 57.5496 133.42 57.2598C139.146 57.0299 143.613 56.92 146.811 56.92 152.707 56.92 157.254 57.3797 160.431 58.299 163.619 59.2284 166.227 60.8573 168.266 63.2156 170.304 65.5539 171.324 68.5219 171.324 72.1094 171.324 75.2172 170.624 77.9552 169.235 80.3336 167.846 82.7119 165.867 84.5206 163.269 85.7498 160.671 86.9789 156.114 87.5985 149.579 87.5985L143.313 87.5985ZM143.313 85.5299 147.39 85.5299C150.678 85.5299 153.326 85.2101 155.345 84.5406 157.363 83.8911 159.042 82.502 160.391 80.4035 161.74 78.295 162.41 75.7068 162.41 72.619 162.41 67.9023 161.251 64.4547 158.942 62.2363 156.634 60.0278 152.887 58.9286 147.69 58.9286 145.782 58.9286 144.323 58.9886 143.313 59.1085L143.313 85.5299Z"/><path d="M218.83 104.627 239.526 57.5396 257.093 57.5396 257.093 59.4482 254.995 59.4482C252.187 59.4482 250.348 59.6781 249.479 60.1378 248.609 60.6074 248.03 61.4668 247.74 62.7159 247.44 63.9851 247.3 66.9829 247.3 71.7096L247.3 99.64C247.3 104.117 247.41 107.045 247.63 108.444 247.85 109.823 248.419 110.852 249.329 111.522 250.238 112.201 251.997 112.541 254.575 112.541L257.093 112.541 257.093 114.45 229.723 114.45 229.723 112.541 231.751 112.541C234.179 112.541 235.858 112.221 236.808 111.622 237.737 110.992 238.347 110.033 238.616 108.734 238.886 107.435 239.016 104.407 239.016 99.64L239.016 63.4155 216.602 114.44 214.563 114.44 191.929 63.4155 191.929 96.762C191.929 101.329 192.069 104.427 192.349 106.085 192.629 107.734 193.488 109.183 194.947 110.422 196.406 111.662 198.455 112.371 201.093 112.541L201.093 114.45 180.597 114.45 180.597 112.541C183.045 112.411 185.034 111.742 186.573 110.552 188.112 109.363 189.051 107.894 189.381 106.175 189.731 104.427 189.901 101.219 189.901 96.5122L189.901 71.7096C189.901 67.1828 189.771 64.2549 189.501 62.9358 189.231 61.6167 188.671 60.7173 187.812 60.2077 186.963 59.7081 185.074 59.4582 182.176 59.4582L180.617 59.4582 180.617 57.5496 197.985 57.5496 218.83 104.627Z"/><path d="M260.331 92.1852C260.331 85.43 262.58 80.0138 267.096 75.9167 271.603 71.8395 277.229 69.791 283.974 69.791 290.78 69.791 296.466 71.8096 301.033 75.8567 305.589 79.9039 307.878 85.42 307.878 92.4151 307.878 99.1903 305.689 104.676 301.332 108.864 296.955 113.071 291.209 115.159 284.074 115.159 277.129 115.159 271.443 113.071 266.996 108.864 262.55 104.666 260.331 99.1004 260.331 92.1852ZM267.776 92.4151C267.776 99.4501 269.165 104.736 271.973 108.274 274.761 111.791 278.948 113.55 284.534 113.55 289.441 113.55 293.318 111.791 296.156 108.274 299.004 104.736 300.433 99.4801 300.433 92.485 300.433 85.6798 299.024 80.4635 296.226 76.836 293.418 73.2186 289.351 71.3998 284.024 71.3998 278.768 71.3998 274.761 73.1686 271.963 76.7161 269.165 80.2436 267.776 85.47 267.776 92.4151Z"/><path d="M359.741 114.36 348.03 114.36C345.961 112.881 342.783 109.093 338.516 102.928 337.137 100.959 335.718 99.0804 334.239 97.2817 332.76 95.4829 331.741 94.3737 331.191 93.974 330.622 93.5743 329.772 93.3844 328.593 93.3844L326.864 93.3844 326.864 103.018C326.864 106.445 326.944 108.684 327.104 109.733 327.264 110.792 327.704 111.582 328.403 112.101 329.113 112.621 330.452 112.871 332.43 112.871L334.549 112.871 334.549 114.36 313.584 114.36 313.584 112.871 315.003 112.871C316.881 112.871 318.17 112.641 318.9 112.161 319.619 111.682 320.079 110.952 320.269 109.943 320.469 108.943 320.579 106.615 320.579 102.968L320.579 81.5027C320.579 78.0152 320.479 75.7668 320.269 74.7475 320.079 73.7382 319.639 73.0487 318.96 72.659 318.28 72.2792 316.811 72.0894 314.563 72.0894L313.804 72.0894 313.804 70.5904 320.049 70.2906C324.216 70.1207 327.524 70.0208 329.962 70.0208 334.129 70.0208 337.517 70.4005 340.125 71.17 342.723 71.9595 344.842 73.2286 346.461 74.9973 348.059 76.7561 348.859 78.8746 348.859 81.3329 348.859 84.2009 347.81 86.6391 345.731 88.6777 343.643 90.6963 340.575 91.9654 336.518 92.455 338.356 93.3144 341.284 96.4922 345.331 101.968 348.639 106.405 351.207 109.293 353.086 110.682 354.965 112.051 357.183 112.791 359.741 112.871L359.741 114.36ZM326.864 91.7855C328.453 91.7356 330.092 91.6756 331.801 91.5957 333.5 91.5157 334.969 91.2759 336.218 90.8762 337.477 90.4864 338.486 89.9168 339.256 89.1873 340.035 88.4379 340.645 87.4586 341.074 86.2594 341.524 85.0503 341.754 83.5613 341.754 81.8025 341.754 78.7147 340.994 76.2564 339.476 74.4077 337.967 72.559 334.659 71.6297 329.562 71.6297 328.783 71.6297 327.864 71.6697 326.854 71.7596L326.854 91.7855Z"/><path d="M390.04 95.6728 408.957 95.6728 408.957 97.1618C406.868 97.1618 405.449 97.3916 404.72 97.8113 403.97 98.231 403.471 98.9305 403.241 99.9098 403.011 100.899 402.891 103.277 402.891 107.055L402.891 111.722C402.381 111.642 401.902 111.592 401.502 111.592 399.843 111.592 397.675 112.101 394.997 113.111 391.339 114.48 387.951 115.169 384.844 115.169 378.588 115.169 373.382 113.101 369.235 108.983 365.088 104.866 363.009 99.65 363.009 93.3244 363.009 87.0688 365.008 81.5727 368.965 76.876 372.942 72.1593 378.318 69.811 385.133 69.811 390.989 69.811 395.836 71.9495 399.683 76.2464 400.413 74.7275 400.862 73.0687 401.052 71.3099L402.551 71.3099 402.551 85.9396 401.052 85.9396C400.433 81.4628 398.724 77.9253 395.946 75.3071 393.158 72.7089 389.78 71.3899 385.793 71.3899 381.686 71.3899 378.108 72.9188 375.06 75.9766 372.013 79.0145 370.484 84.4407 370.484 92.2252 370.484 99.9798 371.943 105.466 374.871 108.714 377.809 111.941 381.446 113.56 385.793 113.56 388.031 113.56 390.05 113.111 391.879 112.191 393.697 111.282 394.947 110.173 395.596 108.854 396.266 107.534 396.595 105.876 396.595 103.867 396.595 101.529 396.426 99.9498 396.116 99.1803 395.806 98.3909 395.316 97.8713 394.667 97.5915 394.017 97.3316 392.828 97.1817 391.099 97.1817L390.05 97.1817 390.05 95.6728Z"/><path d="M440.694 98.201 424.096 98.201 422.947 100.979C421.268 105.016 420.429 107.634 420.429 108.864 420.429 110.183 420.868 111.172 421.768 111.861 422.667 112.541 423.816 112.881 425.235 112.881L425.235 114.37 412.065 114.37 412.065 112.881C414.003 112.571 415.452 111.891 416.411 110.822 417.361 109.753 418.51 107.514 419.849 104.087 419.989 103.767 420.519 102.518 421.438 100.33L434.209 70.0308 435.488 70.0308 450.058 104.756 452.046 109.333C452.506 110.362 453.116 111.172 453.875 111.761 454.645 112.371 455.784 112.741 457.313 112.891L457.313 114.38 440.135 114.38 440.135 112.891C442.233 112.891 443.662 112.731 444.402 112.421 445.141 112.101 445.511 111.482 445.511 110.562 445.511 110.093 445.011 108.684 444.022 106.335L440.694 98.201ZM440.035 96.5922 432.4 78.0852 424.766 96.5922 440.035 96.5922Z"/><path d="M502.161 115.379 471.113 74.3278 471.113 104.696C471.113 107.215 471.243 108.874 471.473 109.683 471.723 110.462 472.412 111.202 473.581 111.871 474.74 112.541 476.479 112.871 478.798 112.871L478.798 114.36 462.519 114.36 462.519 112.871C464.588 112.721 466.167 112.341 467.266 111.722 468.355 111.112 468.995 110.452 469.204 109.743 469.414 109.033 469.504 107.355 469.504 104.716L469.504 81.5027C469.504 78.1551 469.344 75.8967 469.034 74.7475 468.725 73.6283 468.225 72.8788 467.546 72.559 466.856 72.2393 465.337 72.0794 462.979 72.0794L462.979 70.5804 476.03 70.5804 501.931 104.826 501.931 78.6448C501.931 76.7161 501.732 75.3571 501.332 74.5776 500.932 73.7982 500.123 73.1986 498.904 72.7389 497.674 72.2892 496.205 72.0694 494.487 72.0694L494.487 70.5704 510.305 70.5704 510.305 72.0694C508.467 72.2093 507.028 72.569 505.989 73.1286 504.939 73.6882 504.26 74.3478 503.98 75.1372 503.69 75.9267 503.54 77.2557 503.54 79.1344L503.54 115.359 502.161 115.359Z"/><path d="M457.892 162.516C457.892 156.07 460.051 150.894 464.348 146.987 468.655 143.089 474.041 141.141 480.476 141.141 486.962 141.141 492.398 143.07 496.755 146.927 501.122 150.784 503.29 156.06 503.29 162.736 503.29 169.201 501.202 174.437 497.025 178.445 492.858 182.462 487.382 184.46 480.576 184.46 473.951 184.46 468.515 182.462 464.278 178.445 460.011 174.437 457.892 169.121 457.892 162.516ZM465.007 162.736C465.007 169.451 466.346 174.497 469.015 177.875 471.683 181.233 475.68 182.911 481.006 182.911 485.683 182.911 489.39 181.233 492.108 177.875 494.826 174.497 496.185 169.481 496.185 162.796 496.185 156.3 494.846 151.314 492.158 147.856 489.5 144.399 485.603 142.67 480.526 142.67 475.51 142.67 471.683 144.359 469.015 147.746 466.336 151.114 465.007 156.1 465.007 162.736Z"/><path d="M126.415 163.535 128.234 163.535 128.234 182.622 126.415 182.622C125.936 180.453 125.066 178.535 123.807 176.876 119.06 182.262 112.985 184.93 105.6 184.93 97.7953 184.93 91.4098 182.452 86.4533 177.485 81.5067 172.529 79.0185 165.973 79.0185 157.799 79.0185 152.433 80.1577 147.386 82.4361 142.65 84.7245 137.913 87.9222 134.396 92.0094 132.107 96.0965 129.809 100.583 128.66 105.46 128.66 109.497 128.66 113.155 129.489 116.442 131.158 119.72 132.807 122.178 134.645 123.797 136.664 124.966 134.396 125.686 132.057 125.916 129.639L127.744 129.639 128.234 150.175 126.415 150.175C125.216 142.89 122.778 137.793 119.09 134.925 115.413 132.047 111.256 130.608 106.629 130.608 100.973 130.608 96.4762 132.917 93.1386 137.543 89.8009 142.16 88.1521 148.765 88.1521 157.369 88.1521 165.514 89.9508 171.759 93.5982 176.116 97.2557 180.443 101.792 182.622 107.199 182.622 110.097 182.622 113.065 181.922 116.102 180.503 119.13 179.084 121.529 176.696 123.297 173.318 125.046 169.941 126.095 166.683 126.415 163.535Z"/><path d="M172.243 162.576 150.488 162.576 150.488 172.679C150.488 175.976 150.578 178.135 150.728 179.154 150.888 180.173 151.328 180.923 151.987 181.423 152.667 181.922 153.956 182.162 155.845 182.162L156.934 182.162 156.934 183.581 138.007 183.581 138.007 182.162 139.096 182.162C140.895 182.162 142.134 181.942 142.824 181.483 143.523 181.033 143.973 180.333 144.163 179.384 144.353 178.425 144.453 176.206 144.453 172.709L144.453 152.223C144.453 148.895 144.353 146.747 144.163 145.778 143.973 144.818 143.543 144.159 142.914 143.779 142.294 143.409 140.905 143.219 138.777 143.219L137.997 143.219 137.997 141.8 156.924 141.8 156.924 143.219 156.144 143.219C154.076 143.219 152.727 143.389 152.087 143.729 151.438 144.069 151.008 144.698 150.788 145.618 150.558 146.547 150.468 148.746 150.468 152.213L150.468 160.497 172.223 160.497 172.223 152.213C172.223 148.885 172.133 146.737 171.953 145.768 171.763 144.808 171.364 144.149 170.734 143.769 170.114 143.399 168.755 143.209 166.647 143.209L165.548 143.209 165.548 141.79 184.464 141.79 184.464 143.209 183.865 143.209C181.796 143.209 180.457 143.379 179.838 143.719 179.198 144.059 178.768 144.688 178.559 145.608 178.339 146.537 178.229 148.736 178.229 152.203L178.229 172.689C178.229 175.966 178.309 178.125 178.469 179.144 178.609 180.163 179.028 180.913 179.698 181.413 180.387 181.912 181.646 182.152 183.515 182.152L184.454 182.152 184.454 183.571 165.538 183.571 165.538 182.152 166.977 182.152C168.735 182.152 169.955 181.932 170.634 181.473 171.314 181.013 171.753 180.313 171.943 179.364 172.123 178.405 172.213 176.176 172.213 172.679L172.213 162.576Z"/><path d="M215.962 168.162 200.143 168.162 199.034 170.82C197.435 174.657 196.636 177.156 196.636 178.325 196.636 179.584 197.056 180.533 197.915 181.173 198.774 181.822 199.874 182.152 201.233 182.152L201.233 183.571 188.641 183.571 188.641 182.152C190.51 181.862 191.889 181.213 192.809 180.193 193.708 179.174 194.807 177.026 196.096 173.748 196.226 173.448 196.716 172.249 197.595 170.18L209.787 141.241 211.016 141.241 224.926 174.387 226.825 178.764C227.254 179.744 227.844 180.523 228.573 181.093 229.293 181.652 230.392 182.002 231.851 182.152L231.851 183.571 215.443 183.571 215.443 182.152C217.441 182.152 218.81 182.002 219.51 181.712 220.209 181.403 220.579 180.813 220.579 179.944 220.579 179.484 220.099 178.145 219.15 175.896L215.962 168.162ZM215.333 166.623 208.058 148.945 200.763 166.623 215.333 166.623Z"/><path d="M237.177 183.141 237.177 169.681 238.706 169.681C240.455 178.435 244.602 182.812 251.118 182.812 254.046 182.812 256.334 181.962 257.943 180.303 259.562 178.625 260.361 176.756 260.361 174.687 260.361 172.599 259.662 170.84 258.243 169.421 256.834 168.022 254.245 166.523 250.488 164.934 247.13 163.495 244.612 162.236 242.923 161.157 241.225 160.078 239.885 158.679 238.926 156.95 237.977 155.221 237.507 153.382 237.507 151.434 237.507 148.456 238.536 145.977 240.615 143.999 242.684 142.01 245.302 141.021 248.489 141.021 250.268 141.021 251.937 141.301 253.506 141.89 255.065 142.46 256.674 143.649 258.323 145.458 259.272 144.329 259.811 143.109 259.931 141.8L261.23 141.8 261.23 152.723 259.931 152.723C259.142 149.575 257.743 147.087 255.754 145.278 253.766 143.459 251.447 142.56 248.809 142.56 246.311 142.56 244.472 143.219 243.303 144.558 242.144 145.888 241.554 147.356 241.554 148.935 241.554 150.854 242.294 152.473 243.763 153.782 245.202 155.131 247.81 156.66 251.577 158.349 255.175 159.958 257.793 161.257 259.432 162.236 261.071 163.215 262.38 164.574 263.379 166.293 264.358 168.022 264.858 170.011 264.858 172.269 264.858 175.836 263.669 178.744 261.27 180.983 258.892 183.221 255.704 184.341 251.707 184.341 247.12 184.341 243.283 182.582 240.215 179.074 239.526 180.034 239.026 181.393 238.706 183.151L237.177 183.151Z"/><path d="M305.909 170.56 307.338 170.56 306.429 183.571 272.013 183.571 272.013 182.152 272.872 182.152C274.921 182.152 276.26 181.882 276.859 181.323 277.469 180.763 277.839 180.064 277.999 179.214 278.159 178.365 278.239 176.196 278.239 172.699L278.239 152.213C278.239 149.015 278.159 146.927 277.979 145.918 277.799 144.908 277.399 144.209 276.78 143.819 276.14 143.409 274.811 143.209 272.772 143.209L272.772 141.79 302.511 141.79 303.501 152.163 302.082 152.163C301.422 149.265 300.623 147.207 299.673 145.987 298.724 144.758 297.615 143.989 296.296 143.679 294.987 143.359 292.898 143.199 290 143.199L284.254 143.199 284.254 160.697 288.651 160.697C290.68 160.697 292.089 160.527 292.878 160.177 293.688 159.828 294.217 159.298 294.467 158.589 294.727 157.879 294.847 156.5 294.847 154.462L296.266 154.462 296.266 168.672 294.847 168.672C294.847 166.353 294.657 164.804 294.267 164.005 293.888 163.225 293.328 162.706 292.578 162.466 291.829 162.236 290.58 162.106 288.801 162.106L284.254 162.106 284.254 171.989C284.254 176.926 284.554 179.844 285.204 180.703 285.843 181.582 287.542 182.012 290.34 182.012L293.428 182.012C295.626 182.012 297.425 181.752 298.844 181.253 300.243 180.733 301.592 179.614 302.871 177.855 304.17 176.126 305.18 173.688 305.909 170.56Z"/><path d="M360.97 149.485 378.958 149.485 378.958 151.434C376.699 152.043 374.721 153.122 373.032 154.681 371.343 156.24 369.594 159.178 367.806 163.495 366.307 167.063 364.918 169.661 363.659 171.34 366.656 175.627 369.005 178.335 370.704 179.484 372.412 180.633 374.231 181.203 376.16 181.203 378.788 181.203 380.816 179.944 382.235 177.435L384.174 177.435C383.595 179.734 382.335 181.582 380.417 182.981 378.498 184.38 376.28 185.09 373.781 185.09 368.315 185.09 363.529 182.362 359.382 176.896 354.465 182.362 349.259 185.09 343.772 185.09 341.084 185.09 338.536 184.44 336.088 183.141 333.63 181.842 331.641 180.024 330.102 177.685 328.553 175.357 327.794 172.639 327.794 169.571 327.794 166.053 328.753 163.115 330.672 160.727 332.58 158.339 336.258 155.331 341.694 151.713 338.416 147.167 336.787 143.05 336.787 139.372 336.787 136.464 337.907 133.876 340.135 131.608 342.373 129.339 345.181 128.2 348.559 128.2 351.567 128.2 354.285 129.059 356.733 130.758 359.152 132.467 360.371 134.695 360.371 137.453 360.371 141.75 356.354 145.918 348.329 149.955 353.316 156.67 358.012 163.175 362.429 169.451 364.018 167.233 365.277 164.924 366.207 162.536 367.106 160.167 367.586 158.309 367.586 156.97 367.586 153.772 365.387 151.923 360.99 151.424L360.99 149.485ZM342.963 153.442C340.025 155.231 337.747 157.319 336.158 159.698 334.549 162.096 333.75 164.405 333.75 166.633 333.75 170.071 335.139 173.328 337.917 176.376 340.685 179.444 343.822 180.973 347.33 180.973 351.237 180.973 354.835 179.044 358.142 175.187 352.267 166.223 347.2 158.988 342.963 153.442ZM347.13 148.376C352.706 145.128 355.484 141.611 355.484 137.833 355.484 135.585 354.875 133.756 353.626 132.367 352.386 130.978 350.718 130.288 348.689 130.288 346.68 130.288 345.052 130.958 343.832 132.287 342.613 133.606 342.004 135.265 342.004 137.244 342.004 139.972 343.723 143.689 347.13 148.376Z"/><path d="M445.831 163.345 447.66 163.345 447.66 182.422 445.831 182.422C445.351 180.263 444.472 178.345 443.213 176.676 438.466 182.052 432.38 184.73 425.015 184.73 417.201 184.73 410.815 182.252 405.859 177.295 400.892 172.329 398.424 165.764 398.424 157.599 398.424 152.233 399.573 147.177 401.862 142.45 404.14 137.713 407.348 134.206 411.435 131.907 415.512 129.619 419.999 128.47 424.886 128.47 428.933 128.47 432.59 129.289 435.868 130.958 439.145 132.607 441.604 134.456 443.223 136.464 444.402 134.206 445.101 131.857 445.361 129.429L447.17 129.429 447.66 149.965 445.831 149.965C444.632 142.68 442.193 137.593 438.506 134.715 434.829 131.827 430.681 130.388 426.055 130.388 420.389 130.388 415.902 132.697 412.554 137.334 409.227 141.94 407.568 148.556 407.568 157.17 407.568 165.324 409.386 171.569 413.024 175.916 416.661 180.243 421.198 182.422 426.624 182.422 429.522 182.422 432.49 181.712 435.518 180.293 438.536 178.894 440.954 176.496 442.703 173.128 444.482 169.761 445.521 166.493 445.831 163.345Z"/><path d="M506.798 180.223C506.798 178.964 507.248 177.895 508.147 176.996 509.046 176.096 510.116 175.657 511.375 175.657 512.654 175.657 513.743 176.096 514.642 176.996 515.542 177.895 515.992 178.964 515.992 180.223 515.992 181.512 515.532 182.592 514.632 183.501 513.713 184.4 512.634 184.85 511.385 184.85 510.106 184.85 509.026 184.38 508.137 183.461 507.238 182.512 506.798 181.443 506.798 180.223Z"/></g></svg>