<?xml version="1.0" standalone="no"?>
<!DOCTYPE svg PUBLIC "-//W3C//DTD SVG 20010904//EN"
 "http://www.w3.org/TR/2001/REC-SVG-20010904/DTD/svg10.dtd">
<svg version="1.0" xmlns="http://www.w3.org/2000/svg"
 width="645.000000pt" height="227.000000pt" viewBox="0 0 645.000000 227.000000"
 preserveAspectRatio="xMidYMid meet">

<g transform="translate(0.000000,227.000000) scale(0.100000,-0.100000)"
fill="#000000" stroke="none">
<path d="M1520 1984 c-30 -8 -66 -22 -80 -31 -40 -26 -210 -195 -210 -210 0
-18 83 -17 151 3 30 9 84 36 120 60 89 59 205 167 195 182 -10 16 -108 14
-176 -4z"/>
<path d="M1160 1614 c-84 -23 -116 -47 -264 -202 -487 -510 -688 -853 -608
-1035 63 -141 290 -137 576 10 l94 49 -45 -63 c-53 -75 -52 -93 10 -93 91 0
134 22 226 117 148 152 353 304 517 384 70 34 144 51 144 33 0 -10 -39 -62
-119 -155 -102 -118 -143 -187 -149 -248 -6 -63 9 -88 66 -113 115 -51 363 21
532 155 69 55 95 100 86 150 -4 21 -11 37 -16 37 -6 0 -37 -21 -69 -47 -79
-64 -155 -109 -224 -133 -66 -23 -147 -27 -147 -7 0 21 52 95 154 217 138 166
168 234 124 285 -70 81 -316 18 -545 -138 -46 -31 -83 -54 -83 -51 0 4 22 32
48 63 95 111 112 137 100 149 -24 24 -152 5 -214 -33 -16 -9 -49 -43 -74 -76
-112 -150 -341 -330 -506 -399 -223 -93 -315 -43 -234 128 85 180 378 553 678
863 73 75 132 141 132 147 0 26 -103 29 -190 6z"/>
<path d="M3899 1382 c-56 -15 -78 -28 -135 -79 -124 -111 -197 -190 -191 -207
15 -38 142 -10 235 52 113 76 273 213 270 231 -5 23 -97 25 -179 3z"/>
<path d="M2675 990 c-138 -12 -192 -37 -287 -133 -97 -98 -110 -117 -110 -163
0 -64 15 -62 99 15 128 118 145 125 296 130 l127 3 -118 -118 c-170 -172 -215
-249 -192 -332 11 -42 28 -61 76 -85 101 -52 261 -18 475 100 3 2 9 -15 15
-38 12 -56 45 -79 120 -86 100 -9 238 35 381 121 l88 54 7 -50 c8 -64 36 -94
107 -115 121 -35 297 13 432 119 20 15 39 28 41 28 3 0 10 -18 17 -39 14 -49
67 -96 123 -112 63 -17 179 0 548 81 528 116 745 147 950 137 118 -6 186 -20
253 -53 33 -16 39 -16 47 -4 15 24 12 53 -12 100 -43 84 -130 120 -311 127
-195 9 -406 -27 -847 -142 -411 -107 -520 -127 -539 -96 -13 21 3 57 91 203
77 129 79 135 75 186 -5 64 -28 98 -88 132 -36 20 -61 25 -140 28 -114 5 -223
-19 -336 -73 -91 -43 -133 -72 -263 -181 -209 -175 -351 -265 -445 -283 -65
-12 -78 -6 -71 33 12 60 106 183 327 428 31 34 48 61 44 69 -12 18 -132 5
-193 -21 -62 -27 -187 -153 -267 -270 -68 -100 -88 -118 -193 -173 -114 -60
-192 -87 -252 -87 -101 0 -81 33 173 297 171 179 167 239 -16 263 -80 10 -103
10 -232 0z m1735 -148 c0 -84 -226 -313 -385 -389 -73 -35 -104 -40 -136 -23
-24 13 -24 41 0 89 83 161 338 348 479 350 39 1 42 -1 42 -27z"/>
</g>
</svg>
