<?xml version="1.0" standalone="no"?>
<!DOCTYPE svg PUBLIC "-//W3C//DTD SVG 1.0//EN" "http://www.w3.org/TR/2001/REC-SVG-20010904/DTD/svg10.dtd">
<svg xmlns="http://www.w3.org/2000/svg" xmlns:xlink="http://www.w3.org/1999/xlink" id="body_1" width="258" height="91">

<g transform="matrix(0.40000004 0 0 0.40000004 -0 0.20000002)">
	<g transform="matrix(0.1 0 -0 -0.1 0 227)">
        <path d="M1520 1984C 1490 1976 1454 1962 1440 1953C 1400 1927 1230 1758 1230 1743C 1230 1725 1313 1726 1381 1746C 1411 1755 1465 1782 1501 1806C 1590 1865 1706 1973 1696 1988C 1686 2004 1588 2002 1520 1984z" stroke="none" fill="#000000" fill-rule="nonzero" />
        <path d="M1160 1614C 1076 1591 1044 1567 896 1412C 409 902 208 559 288 377C 351 236 578 240 864 387L864 387L958 436L913 373C 860 298 861 280 923 280C 1014 280 1057 302 1149 397C 1297 549 1502 701 1666 781C 1736 815 1810 832 1810 814C 1810 804 1771 752 1691 659C 1589 541 1548 472 1542 411C 1536 348 1551 323 1608 298C 1723 247 1971 319 2140 453C 2209 508 2235 553 2226 603C 2222 624 2215 640 2210 640C 2204 640 2173 619 2141 593C 2062 529 1986 484 1917 460C 1851 437 1770 433 1770 453C 1770 474 1822 548 1924 670C 2062 836 2092 904 2048 955C 1978 1036 1732 973 1503 817C 1457 786 1420 763 1420 766C 1420 770 1442 798 1468 829C 1563 940 1580 966 1568 978C 1544 1002 1416 983 1354 945C 1338 936 1305 902 1280 869C 1168 719 939 539 774 470C 551 377 459 427 540 598C 625 778 918 1151 1218 1461C 1291 1536 1350 1602 1350 1608C 1350 1634 1247 1637 1160 1614z" stroke="none" fill="#000000" fill-rule="nonzero" />
        <path d="M3899 1382C 3843 1367 3821 1354 3764 1303C 3640 1192 3567 1113 3573 1096C 3588 1058 3715 1086 3808 1148C 3921 1224 4081 1361 4078 1379C 4073 1402 3981 1404 3899 1382z" stroke="none" fill="#000000" fill-rule="nonzero" />
        <path d="M2675 990C 2537 978 2483 953 2388 857C 2291 759 2278 740 2278 694C 2278 630 2293 632 2377 709C 2505 827 2522 834 2673 839L2673 839L2800 842L2682 724C 2512 552 2467 475 2490 392C 2501 350 2518 331 2566 307C 2667 255 2827 289 3041 407C 3044 409 3050 392 3056 369C 3068 313 3101 290 3176 283C 3276 274 3414 318 3557 404L3557 404L3645 458L3652 408C 3660 344 3688 314 3759 293C 3880 258 4056 306 4191 412C 4211 427 4230 440 4232 440C 4235 440 4242 422 4249 401C 4263 352 4316 305 4372 289C 4435 272 4551 289 4920 370C 5448 486 5665 517 5870 507C 5988 501 6056 487 6123 454C 6156 438 6162 438 6170 450C 6185 474 6182 503 6158 550C 6115 634 6028 670 5847 677C 5652 686 5441 650 5000 535C 4589 428 4480 408 4461 439C 4448 460 4464 496 4552 642C 4629 771 4631 777 4627 828C 4622 892 4599 926 4539 960C 4503 980 4478 985 4399 988C 4285 993 4176 969 4063 915C 3972 872 3930 843 3800 734C 3591 559 3449 469 3355 451C 3290 439 3277 445 3284 484C 3296 544 3390 667 3611 912C 3642 946 3659 973 3655 981C 3643 999 3523 986 3462 960C 3400 933 3275 807 3195 690C 3127 590 3107 572 3002 517C 2888 457 2810 430 2750 430C 2649 430 2669 463 2923 727C 3094 906 3090 966 2907 990C 2827 1000 2804 1000 2675 990zM4410 842C 4410 758 4184 529 4025 453C 3952 418 3921 413 3889 430C 3865 443 3865 471 3889 519C 3972 680 4227 867 4368 869C 4407 870 4410 868 4410 842z" stroke="none" fill="#000000" fill-rule="nonzero" />
	</g>
</g>
</svg>